<mxfile host="app.diagrams.net" modified="2022-12-13T06:40:04.586Z" agent="5.0 (Windows NT 10.0; Win64; x64) AppleWebKit/537.36 (KHTML, like Gecko) Chrome/108.0.0.0 Safari/537.36 Edg/108.0.1462.46" version="20.6.2" etag="1j2mNIxvGWqgZXfgYJcz" type="github">
  <diagram id="RznHbPyfU38vUqnfjKrQ" name="第 1 页">
    <mxGraphModel dx="1618" dy="896" grid="1" gridSize="10" guides="1" tooltips="1" connect="1" arrows="1" fold="1" page="1" pageScale="1" pageWidth="3300" pageHeight="4681" math="0" shadow="0">
      <root>
        <mxCell id="0" />
        <mxCell id="1" parent="0" />
        <mxCell id="-K8zKf4ajZRmOtp7wt7p-9" value="" style="rounded=0;whiteSpace=wrap;html=1;" vertex="1" parent="1">
          <mxGeometry x="650" y="260" width="1140" height="590" as="geometry" />
        </mxCell>
        <mxCell id="-K8zKf4ajZRmOtp7wt7p-1" value="gps_cross_notify_msg" style="ellipse;shape=cloud;whiteSpace=wrap;html=1;" vertex="1" parent="1">
          <mxGeometry x="660" y="880" width="200" height="40" as="geometry" />
        </mxCell>
        <mxCell id="-K8zKf4ajZRmOtp7wt7p-2" value="alarm_cross_notify" style="ellipse;shape=cloud;whiteSpace=wrap;html=1;" vertex="1" parent="1">
          <mxGeometry x="880" y="880" width="220" height="40" as="geometry" />
        </mxCell>
        <mxCell id="-K8zKf4ajZRmOtp7wt7p-60" style="edgeStyle=orthogonalEdgeStyle;rounded=0;orthogonalLoop=1;jettySize=auto;html=1;exitX=0.55;exitY=0.95;exitDx=0;exitDy=0;exitPerimeter=0;entryX=1;entryY=0.25;entryDx=0;entryDy=0;fontSize=15;" edge="1" parent="1" source="-K8zKf4ajZRmOtp7wt7p-3" target="-K8zKf4ajZRmOtp7wt7p-39">
          <mxGeometry relative="1" as="geometry">
            <Array as="points">
              <mxPoint x="1910" y="182" />
              <mxPoint x="1910" y="361" />
            </Array>
          </mxGeometry>
        </mxCell>
        <mxCell id="-K8zKf4ajZRmOtp7wt7p-3" value="alarm_file_rsp_cross_notify" style="ellipse;shape=cloud;whiteSpace=wrap;html=1;" vertex="1" parent="1">
          <mxGeometry x="1790" y="135" width="210" height="50" as="geometry" />
        </mxCell>
        <mxCell id="-K8zKf4ajZRmOtp7wt7p-4" value="car_cross_notify" style="ellipse;shape=cloud;whiteSpace=wrap;html=1;" vertex="1" parent="1">
          <mxGeometry x="1110" y="880" width="200" height="40" as="geometry" />
        </mxCell>
        <mxCell id="-K8zKf4ajZRmOtp7wt7p-5" value="driver_cross_notify" style="ellipse;shape=cloud;whiteSpace=wrap;html=1;" vertex="1" parent="1">
          <mxGeometry x="1330" y="880" width="200" height="40" as="geometry" />
        </mxCell>
        <mxCell id="-K8zKf4ajZRmOtp7wt7p-7" value="alarm_file_req_cross_notify" style="ellipse;shape=cloud;whiteSpace=wrap;html=1;" vertex="1" parent="1">
          <mxGeometry x="1550" y="880" width="220" height="40" as="geometry" />
        </mxCell>
        <mxCell id="-K8zKf4ajZRmOtp7wt7p-52" style="edgeStyle=orthogonalEdgeStyle;rounded=0;orthogonalLoop=1;jettySize=auto;html=1;exitX=0.55;exitY=0.95;exitDx=0;exitDy=0;exitPerimeter=0;entryX=0.5;entryY=0;entryDx=0;entryDy=0;fontSize=15;" edge="1" parent="1" source="-K8zKf4ajZRmOtp7wt7p-10" target="-K8zKf4ajZRmOtp7wt7p-17">
          <mxGeometry relative="1" as="geometry" />
        </mxCell>
        <mxCell id="-K8zKf4ajZRmOtp7wt7p-10" value="gps_cross_notify_msg" style="ellipse;shape=cloud;whiteSpace=wrap;html=1;" vertex="1" parent="1">
          <mxGeometry x="660" y="140" width="200" height="40" as="geometry" />
        </mxCell>
        <mxCell id="-K8zKf4ajZRmOtp7wt7p-64" style="edgeStyle=orthogonalEdgeStyle;rounded=0;orthogonalLoop=1;jettySize=auto;html=1;exitX=0.55;exitY=0.95;exitDx=0;exitDy=0;exitPerimeter=0;entryX=0.25;entryY=0;entryDx=0;entryDy=0;strokeWidth=1;fontSize=15;" edge="1" parent="1" source="-K8zKf4ajZRmOtp7wt7p-11" target="-K8zKf4ajZRmOtp7wt7p-28">
          <mxGeometry relative="1" as="geometry">
            <Array as="points">
              <mxPoint x="1000" y="232" />
              <mxPoint x="1052" y="232" />
            </Array>
          </mxGeometry>
        </mxCell>
        <mxCell id="-K8zKf4ajZRmOtp7wt7p-11" value="gps_cross_notify_msg" style="ellipse;shape=cloud;whiteSpace=wrap;html=1;" vertex="1" parent="1">
          <mxGeometry x="890" y="140" width="200" height="40" as="geometry" />
        </mxCell>
        <mxCell id="-K8zKf4ajZRmOtp7wt7p-68" style="edgeStyle=orthogonalEdgeStyle;rounded=0;orthogonalLoop=1;jettySize=auto;html=1;exitX=0.55;exitY=0.95;exitDx=0;exitDy=0;exitPerimeter=0;entryX=0.25;entryY=0;entryDx=0;entryDy=0;strokeWidth=1;fontSize=15;" edge="1" parent="1" source="-K8zKf4ajZRmOtp7wt7p-12" target="-K8zKf4ajZRmOtp7wt7p-28">
          <mxGeometry relative="1" as="geometry" />
        </mxCell>
        <mxCell id="-K8zKf4ajZRmOtp7wt7p-12" value="gps_cross_notify_msg" style="ellipse;shape=cloud;whiteSpace=wrap;html=1;" vertex="1" parent="1">
          <mxGeometry x="1110" y="140" width="200" height="40" as="geometry" />
        </mxCell>
        <mxCell id="-K8zKf4ajZRmOtp7wt7p-70" style="edgeStyle=orthogonalEdgeStyle;rounded=0;orthogonalLoop=1;jettySize=auto;html=1;exitX=0.55;exitY=0.95;exitDx=0;exitDy=0;exitPerimeter=0;entryX=0.25;entryY=0;entryDx=0;entryDy=0;strokeWidth=1;fontSize=15;" edge="1" parent="1" source="-K8zKf4ajZRmOtp7wt7p-13" target="-K8zKf4ajZRmOtp7wt7p-28">
          <mxGeometry relative="1" as="geometry" />
        </mxCell>
        <mxCell id="-K8zKf4ajZRmOtp7wt7p-13" value="gps_cross_notify_msg" style="ellipse;shape=cloud;whiteSpace=wrap;html=1;" vertex="1" parent="1">
          <mxGeometry x="1330" y="140" width="200" height="40" as="geometry" />
        </mxCell>
        <mxCell id="-K8zKf4ajZRmOtp7wt7p-72" style="edgeStyle=orthogonalEdgeStyle;rounded=0;orthogonalLoop=1;jettySize=auto;html=1;exitX=0.55;exitY=0.95;exitDx=0;exitDy=0;exitPerimeter=0;entryX=0.25;entryY=0;entryDx=0;entryDy=0;strokeWidth=1;fontSize=15;" edge="1" parent="1" source="-K8zKf4ajZRmOtp7wt7p-14" target="-K8zKf4ajZRmOtp7wt7p-28">
          <mxGeometry relative="1" as="geometry">
            <Array as="points">
              <mxPoint x="1670" y="230" />
              <mxPoint x="1052" y="230" />
            </Array>
          </mxGeometry>
        </mxCell>
        <mxCell id="-K8zKf4ajZRmOtp7wt7p-14" value="gps_cross_notify_msg" style="ellipse;shape=cloud;whiteSpace=wrap;html=1;" vertex="1" parent="1">
          <mxGeometry x="1560" y="140" width="200" height="40" as="geometry" />
        </mxCell>
        <mxCell id="-K8zKf4ajZRmOtp7wt7p-18" style="edgeStyle=orthogonalEdgeStyle;rounded=0;orthogonalLoop=1;jettySize=auto;html=1;exitX=0;exitY=0.5;exitDx=0;exitDy=0;" edge="1" parent="1" source="-K8zKf4ajZRmOtp7wt7p-17">
          <mxGeometry relative="1" as="geometry">
            <mxPoint x="550" y="300.47058823529414" as="targetPoint" />
          </mxGeometry>
        </mxCell>
        <mxCell id="-K8zKf4ajZRmOtp7wt7p-77" value="false&lt;br&gt;" style="edgeLabel;html=1;align=center;verticalAlign=middle;resizable=0;points=[];fontSize=15;" vertex="1" connectable="0" parent="-K8zKf4ajZRmOtp7wt7p-18">
          <mxGeometry x="0.3434" y="-2" relative="1" as="geometry">
            <mxPoint x="73" as="offset" />
          </mxGeometry>
        </mxCell>
        <mxCell id="-K8zKf4ajZRmOtp7wt7p-20" style="edgeStyle=orthogonalEdgeStyle;rounded=0;orthogonalLoop=1;jettySize=auto;html=1;exitX=0.5;exitY=1;exitDx=0;exitDy=0;entryX=0;entryY=0.5;entryDx=0;entryDy=0;" edge="1" parent="1" source="-K8zKf4ajZRmOtp7wt7p-17" target="-K8zKf4ajZRmOtp7wt7p-19">
          <mxGeometry relative="1" as="geometry" />
        </mxCell>
        <mxCell id="-K8zKf4ajZRmOtp7wt7p-21" value="&lt;font style=&quot;font-size: 15px;&quot;&gt;true&lt;/font&gt;" style="edgeLabel;html=1;align=center;verticalAlign=middle;resizable=0;points=[];" vertex="1" connectable="0" parent="-K8zKf4ajZRmOtp7wt7p-20">
          <mxGeometry x="-0.8494" y="-3" relative="1" as="geometry">
            <mxPoint as="offset" />
          </mxGeometry>
        </mxCell>
        <mxCell id="-K8zKf4ajZRmOtp7wt7p-22" value="放入缓存" style="edgeLabel;html=1;align=center;verticalAlign=middle;resizable=0;points=[];fontSize=15;" vertex="1" connectable="0" parent="-K8zKf4ajZRmOtp7wt7p-20">
          <mxGeometry x="0.1879" y="4" relative="1" as="geometry">
            <mxPoint as="offset" />
          </mxGeometry>
        </mxCell>
        <mxCell id="-K8zKf4ajZRmOtp7wt7p-17" value="isInside() ? true : false" style="rhombus;whiteSpace=wrap;html=1;" vertex="1" parent="1">
          <mxGeometry x="690" y="260" width="160" height="80" as="geometry" />
        </mxCell>
        <mxCell id="-K8zKf4ajZRmOtp7wt7p-51" style="edgeStyle=orthogonalEdgeStyle;rounded=0;orthogonalLoop=1;jettySize=auto;html=1;exitX=0.25;exitY=1;exitDx=0;exitDy=0;fontSize=15;" edge="1" parent="1" source="-K8zKf4ajZRmOtp7wt7p-19" target="-K8zKf4ajZRmOtp7wt7p-1">
          <mxGeometry relative="1" as="geometry">
            <Array as="points">
              <mxPoint x="1050" y="570" />
              <mxPoint x="1050" y="725" />
              <mxPoint x="760" y="725" />
            </Array>
          </mxGeometry>
        </mxCell>
        <mxCell id="-K8zKf4ajZRmOtp7wt7p-61" style="edgeStyle=orthogonalEdgeStyle;rounded=0;orthogonalLoop=1;jettySize=auto;html=1;exitX=0.5;exitY=1;exitDx=0;exitDy=0;entryX=0.592;entryY=0.188;entryDx=0;entryDy=0;entryPerimeter=0;strokeWidth=1;fontSize=15;" edge="1" parent="1" source="-K8zKf4ajZRmOtp7wt7p-19" target="-K8zKf4ajZRmOtp7wt7p-2">
          <mxGeometry relative="1" as="geometry" />
        </mxCell>
        <mxCell id="-K8zKf4ajZRmOtp7wt7p-62" style="edgeStyle=orthogonalEdgeStyle;rounded=0;orthogonalLoop=1;jettySize=auto;html=1;exitX=0.75;exitY=1;exitDx=0;exitDy=0;strokeWidth=1;fontSize=15;" edge="1" parent="1" source="-K8zKf4ajZRmOtp7wt7p-19" target="-K8zKf4ajZRmOtp7wt7p-4">
          <mxGeometry relative="1" as="geometry">
            <Array as="points">
              <mxPoint x="1050" y="570" />
              <mxPoint x="1050" y="725" />
              <mxPoint x="1210" y="725" />
            </Array>
          </mxGeometry>
        </mxCell>
        <mxCell id="-K8zKf4ajZRmOtp7wt7p-63" style="edgeStyle=orthogonalEdgeStyle;rounded=0;orthogonalLoop=1;jettySize=auto;html=1;exitX=0.75;exitY=1;exitDx=0;exitDy=0;strokeWidth=1;fontSize=15;" edge="1" parent="1" source="-K8zKf4ajZRmOtp7wt7p-19" target="-K8zKf4ajZRmOtp7wt7p-5">
          <mxGeometry relative="1" as="geometry">
            <Array as="points">
              <mxPoint x="1050" y="570" />
              <mxPoint x="1050" y="725" />
              <mxPoint x="1430" y="725" />
            </Array>
          </mxGeometry>
        </mxCell>
        <mxCell id="-K8zKf4ajZRmOtp7wt7p-74" value="true&lt;br&gt;" style="edgeLabel;html=1;align=center;verticalAlign=middle;resizable=0;points=[];fontSize=15;" vertex="1" connectable="0" parent="-K8zKf4ajZRmOtp7wt7p-63">
          <mxGeometry x="-0.4136" y="3" relative="1" as="geometry">
            <mxPoint as="offset" />
          </mxGeometry>
        </mxCell>
        <mxCell id="-K8zKf4ajZRmOtp7wt7p-19" value="" style="rounded=0;whiteSpace=wrap;html=1;dashed=1;" vertex="1" parent="1">
          <mxGeometry x="850" y="430" width="400" height="140" as="geometry" />
        </mxCell>
        <mxCell id="-K8zKf4ajZRmOtp7wt7p-23" value="key : value&lt;br&gt;&lt;br&gt;carLicense_color : cacheTime&lt;br&gt;&lt;br&gt;&amp;nbsp;cacheTime -&amp;gt; gpeTime\carTime\driverTime\alarmTime" style="text;html=1;strokeColor=none;fillColor=none;align=left;verticalAlign=middle;whiteSpace=wrap;rounded=0;fontSize=15;" vertex="1" parent="1">
          <mxGeometry x="860" y="460" width="390" height="50" as="geometry" />
        </mxCell>
        <mxCell id="-K8zKf4ajZRmOtp7wt7p-43" value="" style="group" vertex="1" connectable="0" parent="1">
          <mxGeometry x="1500" y="660" width="250" height="125" as="geometry" />
        </mxCell>
        <mxCell id="-K8zKf4ajZRmOtp7wt7p-38" value="" style="rounded=0;whiteSpace=wrap;html=1;fontSize=15;strokeWidth=3;" vertex="1" parent="-K8zKf4ajZRmOtp7wt7p-43">
          <mxGeometry width="250" height="125" as="geometry" />
        </mxCell>
        <mxCell id="-K8zKf4ajZRmOtp7wt7p-41" value="alarm_info" style="text;html=1;strokeColor=none;fillColor=none;align=center;verticalAlign=middle;whiteSpace=wrap;rounded=0;strokeWidth=3;fontSize=15;" vertex="1" parent="-K8zKf4ajZRmOtp7wt7p-43">
          <mxGeometry x="10" y="10" width="60" height="30" as="geometry" />
        </mxCell>
        <mxCell id="-K8zKf4ajZRmOtp7wt7p-44" value="" style="group" vertex="1" connectable="0" parent="1">
          <mxGeometry x="1500" y="480" width="250" height="125" as="geometry" />
        </mxCell>
        <mxCell id="-K8zKf4ajZRmOtp7wt7p-37" value="" style="rounded=0;whiteSpace=wrap;html=1;fontSize=15;strokeWidth=3;" vertex="1" parent="-K8zKf4ajZRmOtp7wt7p-44">
          <mxGeometry width="250" height="125" as="geometry" />
        </mxCell>
        <mxCell id="-K8zKf4ajZRmOtp7wt7p-40" value="alarm_file" style="text;html=1;strokeColor=none;fillColor=none;align=center;verticalAlign=middle;whiteSpace=wrap;rounded=0;strokeWidth=3;fontSize=15;" vertex="1" parent="-K8zKf4ajZRmOtp7wt7p-44">
          <mxGeometry x="10" y="5" width="60" height="30" as="geometry" />
        </mxCell>
        <mxCell id="-K8zKf4ajZRmOtp7wt7p-45" value="" style="group" vertex="1" connectable="0" parent="1">
          <mxGeometry x="1500" y="330" width="250" height="125" as="geometry" />
        </mxCell>
        <mxCell id="-K8zKf4ajZRmOtp7wt7p-39" value="" style="rounded=0;whiteSpace=wrap;html=1;fontSize=15;strokeWidth=3;" vertex="1" parent="-K8zKf4ajZRmOtp7wt7p-45">
          <mxGeometry width="250" height="125" as="geometry" />
        </mxCell>
        <mxCell id="-K8zKf4ajZRmOtp7wt7p-42" value="alarm_req" style="text;html=1;strokeColor=none;fillColor=none;align=center;verticalAlign=middle;whiteSpace=wrap;rounded=0;strokeWidth=3;fontSize=15;" vertex="1" parent="-K8zKf4ajZRmOtp7wt7p-45">
          <mxGeometry x="10" y="10" width="60" height="30" as="geometry" />
        </mxCell>
        <mxCell id="-K8zKf4ajZRmOtp7wt7p-49" style="edgeStyle=orthogonalEdgeStyle;rounded=0;orthogonalLoop=1;jettySize=auto;html=1;entryX=0.932;entryY=0.512;entryDx=0;entryDy=0;entryPerimeter=0;fontSize=15;dashed=1;strokeWidth=2;" edge="1" parent="1" source="-K8zKf4ajZRmOtp7wt7p-39" target="-K8zKf4ajZRmOtp7wt7p-7">
          <mxGeometry relative="1" as="geometry">
            <Array as="points">
              <mxPoint x="1910" y="400" />
              <mxPoint x="1910" y="900" />
            </Array>
          </mxGeometry>
        </mxCell>
        <mxCell id="-K8zKf4ajZRmOtp7wt7p-50" value="定时轮询发送消息" style="edgeLabel;html=1;align=center;verticalAlign=middle;resizable=0;points=[];fontSize=15;" vertex="1" connectable="0" parent="-K8zKf4ajZRmOtp7wt7p-49">
          <mxGeometry x="-0.7657" y="3" relative="1" as="geometry">
            <mxPoint x="65" y="223" as="offset" />
          </mxGeometry>
        </mxCell>
        <mxCell id="-K8zKf4ajZRmOtp7wt7p-67" style="edgeStyle=orthogonalEdgeStyle;rounded=0;orthogonalLoop=1;jettySize=auto;html=1;exitX=0.25;exitY=1;exitDx=0;exitDy=0;entryX=0.5;entryY=0;entryDx=0;entryDy=0;strokeWidth=1;fontSize=15;" edge="1" parent="1" source="-K8zKf4ajZRmOtp7wt7p-28" target="-K8zKf4ajZRmOtp7wt7p-19">
          <mxGeometry relative="1" as="geometry">
            <Array as="points">
              <mxPoint x="1050" y="315" />
            </Array>
          </mxGeometry>
        </mxCell>
        <mxCell id="-K8zKf4ajZRmOtp7wt7p-28" value="接收消息，查看是否在缓存中" style="rounded=0;whiteSpace=wrap;html=1;fontSize=15;" vertex="1" parent="1">
          <mxGeometry x="950" y="285" width="410" height="30" as="geometry" />
        </mxCell>
        <mxCell id="-K8zKf4ajZRmOtp7wt7p-75" style="edgeStyle=orthogonalEdgeStyle;rounded=0;orthogonalLoop=1;jettySize=auto;html=1;exitX=0;exitY=0.5;exitDx=0;exitDy=0;strokeWidth=1;fontSize=15;" edge="1" parent="1" source="-K8zKf4ajZRmOtp7wt7p-73">
          <mxGeometry relative="1" as="geometry">
            <mxPoint x="530" y="645.1764705882354" as="targetPoint" />
          </mxGeometry>
        </mxCell>
        <mxCell id="-K8zKf4ajZRmOtp7wt7p-76" value="fales" style="edgeLabel;html=1;align=center;verticalAlign=middle;resizable=0;points=[];fontSize=15;" vertex="1" connectable="0" parent="-K8zKf4ajZRmOtp7wt7p-75">
          <mxGeometry x="-0.6773" y="-5" relative="1" as="geometry">
            <mxPoint as="offset" />
          </mxGeometry>
        </mxCell>
        <mxCell id="-K8zKf4ajZRmOtp7wt7p-73" value="isCache()" style="rhombus;whiteSpace=wrap;html=1;strokeWidth=2;fontSize=15;" vertex="1" parent="1">
          <mxGeometry x="975" y="605" width="150" height="80" as="geometry" />
        </mxCell>
      </root>
    </mxGraphModel>
  </diagram>
</mxfile>
